<svg width="25" height="25" viewBox="0 0 25 25" fill="none" xmlns="http://www.w3.org/2000/svg">
<mask id="mask0_580_5143" style="mask-type:alpha" maskUnits="userSpaceOnUse" x="0" y="0" width="25" height="25">
<rect x="0.40625" y="0.313721" width="24" height="24" fill="#D9D9D9"/>
</mask>
<g mask="url(#mask0_580_5143)">
<path d="M11.0063 16.9137L18.0563 9.86372L16.6562 8.46372L11.0063 14.1137L8.15625 11.2637L6.75625 12.6637L11.0063 16.9137ZM12.4062 22.3137C11.0229 22.3137 9.72292 22.0512 8.50625 21.5262C7.28958 21.0012 6.23125 20.2887 5.33125 19.3887C4.43125 18.4887 3.71875 17.4304 3.19375 16.2137C2.66875 14.9971 2.40625 13.6971 2.40625 12.3137C2.40625 10.9304 2.66875 9.63039 3.19375 8.41372C3.71875 7.19705 4.43125 6.13872 5.33125 5.23872C6.23125 4.33872 7.28958 3.62622 8.50625 3.10122C9.72292 2.57622 11.0229 2.31372 12.4062 2.31372C13.7896 2.31372 15.0896 2.57622 16.3063 3.10122C17.5229 3.62622 18.5813 4.33872 19.4813 5.23872C20.3813 6.13872 21.0938 7.19705 21.6187 8.41372C22.1437 9.63039 22.4062 10.9304 22.4062 12.3137C22.4062 13.6971 22.1437 14.9971 21.6187 16.2137C21.0938 17.4304 20.3813 18.4887 19.4813 19.3887C18.5813 20.2887 17.5229 21.0012 16.3063 21.5262C15.0896 22.0512 13.7896 22.3137 12.4062 22.3137ZM12.4062 20.3137C14.6396 20.3137 16.5312 19.5387 18.0813 17.9887C19.6313 16.4387 20.4062 14.5471 20.4062 12.3137C20.4062 10.0804 19.6313 8.18872 18.0813 6.63872C16.5312 5.08872 14.6396 4.31372 12.4062 4.31372C10.1729 4.31372 8.28125 5.08872 6.73125 6.63872C5.18125 8.18872 4.40625 10.0804 4.40625 12.3137C4.40625 14.5471 5.18125 16.4387 6.73125 17.9887C8.28125 19.5387 10.1729 20.3137 12.4062 20.3137Z" fill="#999999"/>
</g>
</svg>
