<svg width="25" height="25" viewBox="0 0 25 25" fill="none" xmlns="http://www.w3.org/2000/svg">
<g opacity="0.8">
<mask id="mask0_929_13958" style="mask-type:alpha" maskUnits="userSpaceOnUse" x="0" y="0" width="25" height="25">
<rect x="0.5" y="0.31665" width="24" height="24" fill="#D9D9D9"/>
</mask>
<g mask="url(#mask0_929_13958)">
<path d="M5.5 21.3167C4.95 21.3167 4.47917 21.1208 4.0875 20.7292C3.69583 20.3375 3.5 19.8666 3.5 19.3167V5.31665C3.5 4.76665 3.69583 4.29582 4.0875 3.90415C4.47917 3.51248 4.95 3.31665 5.5 3.31665H13.5V5.31665H5.5V19.3167H19.5V11.3167H21.5V19.3167C21.5 19.8666 21.3042 20.3375 20.9125 20.7292C20.5208 21.1208 20.05 21.3167 19.5 21.3167H5.5ZM6.5 17.3167H18.5L14.75 12.3167L11.75 16.3167L9.5 13.3167L6.5 17.3167ZM17.5 9.31665V7.31665H15.5V5.31665H17.5V3.31665H19.5V5.31665H21.5V7.31665H19.5V9.31665H17.5Z" fill="#333333"/>
</g>
</g>
</svg>
