<svg width="25" height="25" viewBox="0 0 25 25" fill="none" xmlns="http://www.w3.org/2000/svg">
<mask id="mask0_2462_16725" style="mask-type:alpha" maskUnits="userSpaceOnUse" x="0" y="0" width="25" height="25">
<rect x="0.5" y="0.384766" width="24" height="24" fill="#D9D9D9"/>
</mask>
<g mask="url(#mask0_2462_16725)">
<path d="M5.5 21.3848C4.95 21.3848 4.47917 21.1889 4.0875 20.7973C3.69583 20.4056 3.5 19.9348 3.5 19.3848V5.38477C3.5 4.83477 3.69583 4.36393 4.0875 3.97227C4.47917 3.5806 4.95 3.38477 5.5 3.38477H13.5V5.38477H5.5V19.3848H19.5V11.3848H21.5V19.3848C21.5 19.9348 21.3042 20.4056 20.9125 20.7973C20.5208 21.1889 20.05 21.3848 19.5 21.3848H5.5ZM6.5 17.3848H18.5L14.75 12.3848L11.75 16.3848L9.5 13.3848L6.5 17.3848ZM17.5 9.38477V7.38477H15.5V5.38477H17.5V3.38477H19.5V5.38477H21.5V7.38477H19.5V9.38477H17.5Z" fill="white"/>
</g>
</svg>
