<svg width="21" height="21" viewBox="0 0 21 21" fill="none" xmlns="http://www.w3.org/2000/svg">
<g opacity="0.8">
<mask id="mask0_897_18137" style="mask-type:alpha" maskUnits="userSpaceOnUse" x="0" y="0" width="21" height="21">
<rect x="0.5" y="0.31665" width="20" height="20" fill="#D9D9D9"/>
</mask>
<g mask="url(#mask0_897_18137)">
<path d="M8.56266 11.7333L9.29183 9.35828L7.37516 7.81661H9.75016L10.5002 5.48328L11.2502 7.81661H13.6252L11.6877 9.35828L12.4168 11.7333L10.5002 10.2541L8.56266 11.7333ZM5.50016 19.4833V13.0458C4.97239 12.4624 4.56266 11.7958 4.271 11.0458C3.97933 10.2958 3.8335 9.49717 3.8335 8.64994C3.8335 6.78883 4.47933 5.21244 5.771 3.92078C7.06266 2.62911 8.63905 1.98328 10.5002 1.98328C12.3613 1.98328 13.9377 2.62911 15.2293 3.92078C16.521 5.21244 17.1668 6.78883 17.1668 8.64994C17.1668 9.49717 17.021 10.2958 16.7293 11.0458C16.4377 11.7958 16.0279 12.4624 15.5002 13.0458V19.4833L10.5002 17.8166L5.50016 19.4833ZM10.5002 13.6499C11.8891 13.6499 13.0696 13.1638 14.0418 12.1916C15.0141 11.2194 15.5002 10.0388 15.5002 8.64994C15.5002 7.26105 15.0141 6.0805 14.0418 5.10828C13.0696 4.13605 11.8891 3.64994 10.5002 3.64994C9.11127 3.64994 7.93072 4.13605 6.9585 5.10828C5.98627 6.0805 5.50016 7.26105 5.50016 8.64994C5.50016 10.0388 5.98627 11.2194 6.9585 12.1916C7.93072 13.1638 9.11127 13.6499 10.5002 13.6499ZM7.16683 17.0041L10.5002 16.1499L13.8335 17.0041V14.4208C13.3474 14.6986 12.8231 14.9173 12.2606 15.077C11.6981 15.2367 11.1113 15.3166 10.5002 15.3166C9.88905 15.3166 9.30225 15.2367 8.73975 15.077C8.17725 14.9173 7.65294 14.6986 7.16683 14.4208V17.0041Z" fill="#333333"/>
</g>
</g>
</svg>
