<svg width="21" height="21" viewBox="0 0 21 21" fill="none" xmlns="http://www.w3.org/2000/svg">
<path d="M6.9 15.3167L10.5 11.7167L14.1 15.3167L15.5 13.9167L11.9 10.3167L15.5 6.71665L14.1 5.31665L10.5 8.91665L6.9 5.31665L5.5 6.71665L9.1 10.3167L5.5 13.9167L6.9 15.3167ZM10.5 20.3167C9.11667 20.3167 7.81667 20.0541 6.6 19.5292C5.38333 19.0042 4.325 18.2917 3.425 17.3917C2.525 16.4917 1.8125 15.4333 1.2875 14.2167C0.7625 13 0.5 11.7 0.5 10.3167C0.5 8.93332 0.7625 7.63332 1.2875 6.41665C1.8125 5.19998 2.525 4.14165 3.425 3.24165C4.325 2.34165 5.38333 1.62915 6.6 1.10415C7.81667 0.57915 9.11667 0.31665 10.5 0.31665C11.8833 0.31665 13.1833 0.57915 14.4 1.10415C15.6167 1.62915 16.675 2.34165 17.575 3.24165C18.475 4.14165 19.1875 5.19998 19.7125 6.41665C20.2375 7.63332 20.5 8.93332 20.5 10.3167C20.5 11.7 20.2375 13 19.7125 14.2167C19.1875 15.4333 18.475 16.4917 17.575 17.3917C16.675 18.2917 15.6167 19.0042 14.4 19.5292C13.1833 20.0541 11.8833 20.3167 10.5 20.3167ZM10.5 18.3167C12.7333 18.3167 14.625 17.5417 16.175 15.9917C17.725 14.4417 18.5 12.55 18.5 10.3167C18.5 8.08332 17.725 6.19165 16.175 4.64165C14.625 3.09165 12.7333 2.31665 10.5 2.31665C8.26667 2.31665 6.375 3.09165 4.825 4.64165C3.275 6.19165 2.5 8.08332 2.5 10.3167C2.5 12.55 3.275 14.4417 4.825 15.9917C6.375 17.5417 8.26667 18.3167 10.5 18.3167Z" fill="#333333"/>
</svg>
