<svg width="21" height="21" viewBox="0 0 21 21" fill="none" xmlns="http://www.w3.org/2000/svg">
<path d="M9.00625 14.9137L16.0563 7.86372L14.6562 6.46372L9.00625 12.1137L6.15625 9.26372L4.75625 10.6637L9.00625 14.9137ZM10.4062 20.3137C9.02292 20.3137 7.72292 20.0512 6.50625 19.5262C5.28958 19.0012 4.23125 18.2887 3.33125 17.3887C2.43125 16.4887 1.71875 15.4304 1.19375 14.2137C0.66875 12.9971 0.40625 11.6971 0.40625 10.3137C0.40625 8.93039 0.66875 7.63039 1.19375 6.41372C1.71875 5.19705 2.43125 4.13872 3.33125 3.23872C4.23125 2.33872 5.28958 1.62622 6.50625 1.10122C7.72292 0.576221 9.02292 0.313721 10.4062 0.313721C11.7896 0.313721 13.0896 0.576221 14.3063 1.10122C15.5229 1.62622 16.5813 2.33872 17.4813 3.23872C18.3813 4.13872 19.0938 5.19705 19.6187 6.41372C20.1437 7.63039 20.4062 8.93039 20.4062 10.3137C20.4062 11.6971 20.1437 12.9971 19.6187 14.2137C19.0938 15.4304 18.3813 16.4887 17.4813 17.3887C16.5813 18.2887 15.5229 19.0012 14.3063 19.5262C13.0896 20.0512 11.7896 20.3137 10.4062 20.3137Z" fill="#0080FF"/>
</svg>
