<svg width="25" height="25" viewBox="0 0 25 25" fill="none" xmlns="http://www.w3.org/2000/svg">
<path d="M7.81446 10.3453C7.08857 10.3453 6.50213 10.9317 6.50213 11.6576C6.50213 12.3835 7.08857 12.9699 7.81446 12.9699C8.54034 12.9699 9.12679 12.3835 9.12679 11.6576C9.12679 10.9317 8.54034 10.3453 7.81446 10.3453ZM12.4076 10.3453C11.6817 10.3453 11.0953 10.9317 11.0953 11.6576C11.0953 12.3835 11.6817 12.9699 12.4076 12.9699C13.1335 12.9699 13.7199 12.3835 13.7199 11.6576C13.7199 10.9317 13.1335 10.3453 12.4076 10.3453ZM17.0008 10.3453C16.2749 10.3453 15.6884 10.9317 15.6884 11.6576C15.6884 12.3835 16.2749 12.9699 17.0008 12.9699C17.7266 12.9699 18.3131 12.3835 18.3131 11.6576C18.3131 10.9317 17.7266 10.3453 17.0008 10.3453ZM12.4076 3.12744C6.60875 3.12744 1.90897 6.9455 1.90897 11.6576C1.90897 13.6097 2.72508 15.3977 4.07842 16.8372C3.46736 18.453 2.19604 19.8227 2.17554 19.8391C1.90487 20.1262 1.83105 20.5445 1.98689 20.9054C2.14273 21.2663 2.49952 21.5001 2.89322 21.5001C5.41535 21.5001 7.40435 20.4461 8.59775 19.6013C9.78295 19.9745 11.0625 20.1877 12.4076 20.1877C18.2065 20.1877 22.9062 16.3697 22.9062 11.6576C22.9062 6.9455 18.2065 3.12744 12.4076 3.12744ZM12.4076 18.2192C11.3126 18.2192 10.23 18.0511 9.1924 17.723L8.26147 17.4277L7.46177 17.9937C6.87532 18.4079 6.07152 18.8713 5.10367 19.183C5.40305 18.6868 5.69422 18.129 5.91978 17.5344L6.35449 16.382L5.50968 15.4879C4.76739 14.6965 3.87747 13.3882 3.87747 11.6576C3.87747 8.04048 7.70373 5.09594 12.4076 5.09594C17.1115 5.09594 20.9378 8.04048 20.9378 11.6576C20.9378 15.2747 17.1115 18.2192 12.4076 18.2192Z" fill="#333333"/>
</svg>
