<svg width="25" height="25" viewBox="0 0 25 25" fill="none" xmlns="http://www.w3.org/2000/svg">
<path d="M12.4062 21.4887L10.9563 20.1887C9.27292 18.672 7.88125 17.3637 6.78125 16.2637C5.68125 15.1637 4.80625 14.1762 4.15625 13.3012C3.50625 12.4262 3.05208 11.622 2.79375 10.8887C2.53542 10.1553 2.40625 9.40534 2.40625 8.63867C2.40625 7.07201 2.93125 5.76367 3.98125 4.71367C5.03125 3.66367 6.33958 3.13867 7.90625 3.13867C8.77292 3.13867 9.59792 3.32201 10.3812 3.68867C11.1646 4.05534 11.8396 4.57201 12.4062 5.23867C12.9729 4.57201 13.6479 4.05534 14.4313 3.68867C15.2146 3.32201 16.0396 3.13867 16.9062 3.13867C18.4729 3.13867 19.7813 3.66367 20.8313 4.71367C21.8813 5.76367 22.4062 7.07201 22.4062 8.63867C22.4062 9.40534 22.2771 10.1553 22.0188 10.8887C21.7604 11.622 21.3062 12.4262 20.6562 13.3012C20.0063 14.1762 19.1313 15.1637 18.0312 16.2637C16.9312 17.3637 15.5396 18.672 13.8562 20.1887L12.4062 21.4887Z" fill="#333333"/>
</svg>
