<svg width="25" height="25" viewBox="0 0 25 25" fill="none" xmlns="http://www.w3.org/2000/svg">
<g opacity="0.8">
<mask id="mask0_471_546" style="mask-type:alpha" maskUnits="userSpaceOnUse" x="0" y="0" width="25" height="25">
<rect x="0.5" y="0.0131836" width="24" height="24" fill="#D9D9D9"/>
</mask>
<g mask="url(#mask0_471_546)">
<path d="M12.5 17.0132C12.7833 17.0132 13.0208 16.9174 13.2125 16.7257C13.4042 16.534 13.5 16.2965 13.5 16.0132C13.5 15.7298 13.4042 15.4924 13.2125 15.3007C13.0208 15.109 12.7833 15.0132 12.5 15.0132C12.2167 15.0132 11.9792 15.109 11.7875 15.3007C11.5958 15.4924 11.5 15.7298 11.5 16.0132C11.5 16.2965 11.5958 16.534 11.7875 16.7257C11.9792 16.9174 12.2167 17.0132 12.5 17.0132ZM11.5 13.0132H13.5V7.01318H11.5V13.0132ZM12.5 22.0132C11.1167 22.0132 9.81667 21.7507 8.6 21.2257C7.38333 20.7007 6.325 19.9882 5.425 19.0882C4.525 18.1882 3.8125 17.1299 3.2875 15.9132C2.7625 14.6965 2.5 13.3965 2.5 12.0132C2.5 10.6299 2.7625 9.32985 3.2875 8.11318C3.8125 6.89652 4.525 5.83818 5.425 4.93818C6.325 4.03818 7.38333 3.32568 8.6 2.80068C9.81667 2.27568 11.1167 2.01318 12.5 2.01318C13.8833 2.01318 15.1833 2.27568 16.4 2.80068C17.6167 3.32568 18.675 4.03818 19.575 4.93818C20.475 5.83818 21.1875 6.89652 21.7125 8.11318C22.2375 9.32985 22.5 10.6299 22.5 12.0132C22.5 13.3965 22.2375 14.6965 21.7125 15.9132C21.1875 17.1299 20.475 18.1882 19.575 19.0882C18.675 19.9882 17.6167 20.7007 16.4 21.2257C15.1833 21.7507 13.8833 22.0132 12.5 22.0132ZM12.5 20.0132C14.7333 20.0132 16.625 19.2382 18.175 17.6882C19.725 16.1382 20.5 14.2465 20.5 12.0132C20.5 9.77985 19.725 7.88818 18.175 6.33818C16.625 4.78818 14.7333 4.01318 12.5 4.01318C10.2667 4.01318 8.375 4.78818 6.825 6.33818C5.275 7.88818 4.5 9.77985 4.5 12.0132C4.5 14.2465 5.275 16.1382 6.825 17.6882C8.375 19.2382 10.2667 20.0132 12.5 20.0132Z" fill="#EE0000"/>
</g>
</g>
</svg>
