<svg width="25" height="25" viewBox="0 0 25 25" fill="none" xmlns="http://www.w3.org/2000/svg">
<g opacity="0.8">
<mask id="mask0_504_1989" style="mask-type:alpha" maskUnits="userSpaceOnUse" x="0" y="0" width="25" height="25">
<rect x="0.5" y="0.31665" width="24" height="24" fill="#D9D9D9"/>
</mask>
<g mask="url(#mask0_504_1989)">
<path d="M12.4995 4.32935C14.7305 4.32935 16.7664 4.92854 18.606 6.1272C20.4457 7.32601 21.8987 8.90757 22.9644 10.8723C23.0472 11.0214 23.1085 11.1751 23.1499 11.3323C23.1913 11.4896 23.2124 11.651 23.2124 11.8167C23.2124 11.9823 23.1913 12.1437 23.1499 12.301C23.1085 12.4583 23.0472 12.6119 22.9644 12.761C21.8987 14.7257 20.4457 16.3073 18.606 17.5061C16.7664 18.7048 14.7305 19.304 12.4995 19.304C10.2687 19.3039 8.23354 18.7047 6.39404 17.5061C4.55427 16.3073 3.1013 14.7257 2.03564 12.761C1.95279 12.6119 1.89051 12.4583 1.84912 12.301C1.80774 12.1438 1.7876 11.9822 1.7876 11.8167C1.7876 11.6511 1.80774 11.4895 1.84912 11.3323C1.89051 11.175 1.95279 11.0214 2.03564 10.8723C3.1013 8.90756 4.55427 7.326 6.39404 6.1272C8.23354 4.92861 10.2687 4.32942 12.4995 4.32935ZM12.4995 7.30396C11.2464 7.30405 10.1805 7.74308 9.30322 8.62036C8.42598 9.4977 7.98779 10.5635 7.98779 11.8167C7.98779 13.0698 8.42598 14.1356 9.30322 15.0129C10.1805 15.8902 11.2464 16.3293 12.4995 16.3293C13.7527 16.3293 14.8185 15.8902 15.6958 15.0129C16.5732 14.1356 17.0122 13.0699 17.0122 11.8167C17.0122 10.5634 16.5732 9.49773 15.6958 8.62036C14.8185 7.74312 13.7527 7.30396 12.4995 7.30396ZM12.4995 9.12915C13.2462 9.12915 13.8812 9.3907 14.4038 9.91333C14.9262 10.4359 15.187 11.0701 15.187 11.8167C15.187 12.5632 14.9262 13.1974 14.4038 13.72C13.8812 14.2426 13.2462 14.5042 12.4995 14.5042C11.753 14.5041 11.1187 14.2425 10.5962 13.72C10.0737 13.1974 9.81201 12.5633 9.81201 11.8167C9.81201 11.07 10.0737 10.4359 10.5962 9.91333C11.1187 9.39079 11.753 9.12924 12.4995 9.12915Z" fill="#333333" stroke="#333333" stroke-width="0.025"/>
</g>
</g>
</svg>
