<svg width="45" height="45" viewBox="0 0 45 45" fill="none" xmlns="http://www.w3.org/2000/svg">
<rect x="0.40625" y="0.313721" width="44" height="44" rx="22" fill="white"/>
<path d="M22.4062 31.4887L20.9563 30.1887C19.2729 28.672 17.8812 27.3637 16.7812 26.2637C15.6813 25.1637 14.8063 24.1762 14.1562 23.3012C13.5062 22.4262 13.0521 21.622 12.7938 20.8887C12.5354 20.1553 12.4062 19.4053 12.4062 18.6387C12.4062 17.072 12.9312 15.7637 13.9813 14.7137C15.0312 13.6637 16.3396 13.1387 17.9062 13.1387C18.7729 13.1387 19.5979 13.322 20.3812 13.6887C21.1646 14.0553 21.8396 14.572 22.4062 15.2387C22.9729 14.572 23.6479 14.0553 24.4313 13.6887C25.2146 13.322 26.0396 13.1387 26.9062 13.1387C28.4729 13.1387 29.7813 13.6637 30.8313 14.7137C31.8813 15.7637 32.4062 17.072 32.4062 18.6387C32.4062 19.4053 32.2771 20.1553 32.0188 20.8887C31.7604 21.622 31.3062 22.4262 30.6562 23.3012C30.0063 24.1762 29.1313 25.1637 28.0312 26.2637C26.9312 27.3637 25.5396 28.672 23.8562 30.1887L22.4062 31.4887ZM22.4062 28.7887C24.0063 27.3553 25.3229 26.1262 26.3562 25.1012C27.3896 24.0762 28.2062 23.1845 28.8062 22.4262C29.4062 21.6678 29.8229 20.9928 30.0562 20.4012C30.2896 19.8095 30.4062 19.222 30.4062 18.6387C30.4062 17.6387 30.0729 16.8053 29.4062 16.1387C28.7396 15.472 27.9062 15.1387 26.9062 15.1387C26.1229 15.1387 25.3979 15.3595 24.7312 15.8012C24.0646 16.2428 23.6062 16.8053 23.3562 17.4887H21.4563C21.2063 16.8053 20.7479 16.2428 20.0813 15.8012C19.4146 15.3595 18.6896 15.1387 17.9062 15.1387C16.9062 15.1387 16.0729 15.472 15.4062 16.1387C14.7396 16.8053 14.4062 17.6387 14.4062 18.6387C14.4062 19.222 14.5229 19.8095 14.7563 20.4012C14.9896 20.9928 15.4062 21.6678 16.0063 22.4262C16.6063 23.1845 17.4229 24.0762 18.4563 25.1012C19.4896 26.1262 20.8062 27.3553 22.4062 28.7887Z" fill="#333333"/>
</svg>
