<svg width="44" height="44" viewBox="0 0 44 44" fill="none" xmlns="http://www.w3.org/2000/svg">
<rect y="0.00500488" width="44" height="44" rx="22" fill="#E6E6E6"/>
<path d="M31.8055 20.0465H31V20.005H22V24.005H27.6515C26.827 26.3335 24.6115 28.005 22 28.005C18.6865 28.005 16 25.3185 16 22.005C16 18.6915 18.6865 16.005 22 16.005C23.5295 16.005 24.921 16.582 25.9805 17.5245L28.809 14.696C27.023 13.0315 24.634 12.005 22 12.005C16.4775 12.005 12 16.4825 12 22.005C12 27.5275 16.4775 32.005 22 32.005C27.5225 32.005 32 27.5275 32 22.005C32 21.3345 31.931 20.68 31.8055 20.0465Z" fill="#333333"/>
</svg>
