<svg width="25" height="25" viewBox="0 0 25 25" fill="none" xmlns="http://www.w3.org/2000/svg">
<path d="M12.3125 21.2992L10.8625 19.9992C9.17917 18.4826 7.7875 17.1742 6.6875 16.0742C5.5875 14.9742 4.7125 13.9867 4.0625 13.1117C3.4125 12.2367 2.95833 11.4326 2.7 10.6992C2.44167 9.96589 2.3125 9.21589 2.3125 8.44922C2.3125 6.88255 2.8375 5.57422 3.8875 4.52422C4.9375 3.47422 6.24583 2.94922 7.8125 2.94922C8.67917 2.94922 9.50417 3.13255 10.2875 3.49922C11.0708 3.86589 11.7458 4.38255 12.3125 5.04922C12.8792 4.38255 13.5542 3.86589 14.3375 3.49922C15.1208 3.13255 15.9458 2.94922 16.8125 2.94922C18.3792 2.94922 19.6875 3.47422 20.7375 4.52422C21.7875 5.57422 22.3125 6.88255 22.3125 8.44922C22.3125 9.21589 22.1833 9.96589 21.925 10.6992C21.6667 11.4326 21.2125 12.2367 20.5625 13.1117C19.9125 13.9867 19.0375 14.9742 17.9375 16.0742C16.8375 17.1742 15.4458 18.4826 13.7625 19.9992L12.3125 21.2992ZM12.3125 18.5992C13.9125 17.1659 15.2292 15.9367 16.2625 14.9117C17.2958 13.8867 18.1125 12.9951 18.7125 12.2367C19.3125 11.4784 19.7292 10.8034 19.9625 10.2117C20.1958 9.62005 20.3125 9.03255 20.3125 8.44922C20.3125 7.44922 19.9792 6.61589 19.3125 5.94922C18.6458 5.28255 17.8125 4.94922 16.8125 4.94922C16.0292 4.94922 15.3042 5.17005 14.6375 5.61172C13.9708 6.05339 13.5125 6.61589 13.2625 7.29922H11.3625C11.1125 6.61589 10.6542 6.05339 9.9875 5.61172C9.32083 5.17005 8.59583 4.94922 7.8125 4.94922C6.8125 4.94922 5.97917 5.28255 5.3125 5.94922C4.64583 6.61589 4.3125 7.44922 4.3125 8.44922C4.3125 9.03255 4.42917 9.62005 4.6625 10.2117C4.89583 10.8034 5.3125 11.4784 5.9125 12.2367C6.5125 12.9951 7.32917 13.8867 8.3625 14.9117C9.39583 15.9367 10.7125 17.1659 12.3125 18.5992Z" fill="white"/>
</svg>
