<svg width="24" height="25" viewBox="0 0 24 25" fill="none" xmlns="http://www.w3.org/2000/svg">
<mask id="mask0_454_598" style="mask-type:alpha" maskUnits="userSpaceOnUse" x="0" y="0" width="24" height="25">
<rect width="24" height="24" transform="matrix(-1 0 0 1 24 0.313721)" fill="#D9D9D9"/>
</mask>
<g mask="url(#mask0_454_598)">
<path d="M11.325 12.3137L14.4 15.3887L13 16.8137L8.5 12.3137L13 7.81372L14.4 9.23872L11.325 12.3137ZM12 22.3137C13.3833 22.3137 14.6833 22.0512 15.9 21.5262C17.1167 21.0012 18.175 20.2887 19.075 19.3887C19.975 18.4887 20.6875 17.4304 21.2125 16.2137C21.7375 14.9971 22 13.6971 22 12.3137C22 10.9304 21.7375 9.63039 21.2125 8.41372C20.6875 7.19705 19.975 6.13872 19.075 5.23872C18.175 4.33872 17.1167 3.62622 15.9 3.10122C14.6833 2.57622 13.3833 2.31372 12 2.31372C10.6167 2.31372 9.31667 2.57622 8.1 3.10122C6.88333 3.62622 5.825 4.33872 4.925 5.23872C4.025 6.13872 3.3125 7.19705 2.7875 8.41372C2.2625 9.63039 2 10.9304 2 12.3137C2 13.6971 2.2625 14.9971 2.7875 16.2137C3.3125 17.4304 4.025 18.4887 4.925 19.3887C5.825 20.2887 6.88333 21.0012 8.1 21.5262C9.31667 22.0512 10.6167 22.3137 12 22.3137ZM12 20.3137C9.76667 20.3137 7.875 19.5387 6.325 17.9887C4.775 16.4387 4 14.5471 4 12.3137C4 10.0804 4.775 8.18872 6.325 6.63872C7.875 5.08872 9.76667 4.31372 12 4.31372C14.2333 4.31372 16.125 5.08872 17.675 6.63872C19.225 8.18872 20 10.0804 20 12.3137C20 14.5471 19.225 16.4387 17.675 17.9887C16.125 19.5387 14.2333 20.3137 12 20.3137Z" fill="#999999"/>
</g>
</svg>
