<svg width="25" height="25" viewBox="0 0 25 25" fill="none" xmlns="http://www.w3.org/2000/svg">
<path d="M12.4062 21.4887L10.9563 20.1887C9.27292 18.672 7.88125 17.3637 6.78125 16.2637C5.68125 15.1637 4.80625 14.1762 4.15625 13.3012C3.50625 12.4262 3.05208 11.622 2.79375 10.8887C2.53542 10.1553 2.40625 9.40534 2.40625 8.63867C2.40625 7.07201 2.93125 5.76367 3.98125 4.71367C5.03125 3.66367 6.33958 3.13867 7.90625 3.13867C8.77292 3.13867 9.59792 3.32201 10.3812 3.68867C11.1646 4.05534 11.8396 4.57201 12.4062 5.23867C12.9729 4.57201 13.6479 4.05534 14.4313 3.68867C15.2146 3.32201 16.0396 3.13867 16.9062 3.13867C18.4729 3.13867 19.7813 3.66367 20.8313 4.71367C21.8813 5.76367 22.4062 7.07201 22.4062 8.63867C22.4062 9.40534 22.2771 10.1553 22.0188 10.8887C21.7604 11.622 21.3062 12.4262 20.6562 13.3012C20.0063 14.1762 19.1313 15.1637 18.0312 16.2637C16.9312 17.3637 15.5396 18.672 13.8562 20.1887L12.4062 21.4887ZM12.4062 18.7887C14.0063 17.3553 15.3229 16.1262 16.3562 15.1012C17.3896 14.0762 18.2062 13.1845 18.8062 12.4262C19.4062 11.6678 19.8229 10.9928 20.0562 10.4012C20.2896 9.80951 20.4062 9.22201 20.4062 8.63867C20.4062 7.63867 20.0729 6.80534 19.4062 6.13867C18.7396 5.47201 17.9062 5.13867 16.9062 5.13867C16.1229 5.13867 15.3979 5.35951 14.7312 5.80117C14.0646 6.24284 13.6062 6.80534 13.3562 7.48867H11.4563C11.2063 6.80534 10.7479 6.24284 10.0813 5.80117C9.41458 5.35951 8.68958 5.13867 7.90625 5.13867C6.90625 5.13867 6.07292 5.47201 5.40625 6.13867C4.73958 6.80534 4.40625 7.63867 4.40625 8.63867C4.40625 9.22201 4.52292 9.80951 4.75625 10.4012C4.98958 10.9928 5.40625 11.6678 6.00625 12.4262C6.60625 13.1845 7.42292 14.0762 8.45625 15.1012C9.48958 16.1262 10.8062 17.3553 12.4062 18.7887Z" fill="#999999"/>
</svg>
