<svg width="24" height="25" viewBox="0 0 24 25" fill="none" xmlns="http://www.w3.org/2000/svg">
<g opacity="0.8">
<mask id="mask0_1310_34493" style="mask-type:alpha" maskUnits="userSpaceOnUse" x="0" y="0" width="24" height="25">
<rect y="0.75" width="24" height="24" fill="#D9D9D9"/>
</mask>
<g mask="url(#mask0_1310_34493)">
<path d="M6 22.75C5.45 22.75 4.97917 22.5542 4.5875 22.1625C4.19583 21.7708 4 21.3 4 20.75V10.75C4 10.2 4.19583 9.72917 4.5875 9.3375C4.97917 8.94583 5.45 8.75 6 8.75H7V6.75C7 5.36667 7.4875 4.1875 8.4625 3.2125C9.4375 2.2375 10.6167 1.75 12 1.75C13.3833 1.75 14.5625 2.2375 15.5375 3.2125C16.5125 4.1875 17 5.36667 17 6.75V8.75H18C18.55 8.75 19.0208 8.94583 19.4125 9.3375C19.8042 9.72917 20 10.2 20 10.75V20.75C20 21.3 19.8042 21.7708 19.4125 22.1625C19.0208 22.5542 18.55 22.75 18 22.75H6ZM6 20.75H18V10.75H6V20.75ZM12 17.75C12.55 17.75 13.0208 17.5542 13.4125 17.1625C13.8042 16.7708 14 16.3 14 15.75C14 15.2 13.8042 14.7292 13.4125 14.3375C13.0208 13.9458 12.55 13.75 12 13.75C11.45 13.75 10.9792 13.9458 10.5875 14.3375C10.1958 14.7292 10 15.2 10 15.75C10 16.3 10.1958 16.7708 10.5875 17.1625C10.9792 17.5542 11.45 17.75 12 17.75ZM9 8.75H15V6.75C15 5.91667 14.7083 5.20833 14.125 4.625C13.5417 4.04167 12.8333 3.75 12 3.75C11.1667 3.75 10.4583 4.04167 9.875 4.625C9.29167 5.20833 9 5.91667 9 6.75V8.75Z" fill="#333333"/>
</g>
</g>
</svg>
