<svg width="37" height="24" viewBox="0 0 37 24" fill="none" xmlns="http://www.w3.org/2000/svg">
<path d="M12.1389 15.2885C11.7731 14.7937 11.3653 14.3786 10.9472 14.0416C10.5994 14.3271 10.2156 14.5938 9.79923 14.8382C8.93395 15.3451 7.69 15.6409 6.79473 14.9514C6.38951 14.6401 6.14877 14.1779 6.13164 13.6839C6.11536 13.1805 6.33639 12.6892 6.73905 12.3341C7.28734 11.8513 8.04468 11.6643 8.92795 11.7938C9.56192 11.8873 10.2147 12.136 10.841 12.5073C11.9864 11.2656 12.1449 9.98435 12.1081 9.21339C12.0318 7.6303 11.0792 6.19042 9.68186 5.54467C8.39936 4.95208 6.96436 5.12017 5.59362 6.01119C5.33404 6.18013 4.98707 6.11753 4.79774 5.87141C4.58527 5.59612 4.64781 5.19392 4.93995 5.00525C6.65166 3.89726 8.53386 3.6923 10.1847 4.45469C11.983 5.28568 13.2081 7.13033 13.3066 9.15507C13.3777 10.6293 12.8508 12.0288 11.8176 13.2037C12.2897 13.6016 12.7292 14.0681 13.1104 14.5853C13.3169 14.8648 13.2355 15.2619 12.9408 15.4454C12.6744 15.6118 12.3265 15.5423 12.1389 15.2893V15.2885ZM8.40107 12.955C8.10208 12.955 7.77653 13.0193 7.53151 13.2354C7.397 13.3538 7.3259 13.4996 7.33018 13.6445C7.33446 13.7809 7.40386 13.9069 7.52551 14.0004C7.92217 14.3057 8.64866 14.1213 9.19353 13.8023C9.44283 13.6565 9.67072 13.5073 9.88061 13.3546C9.47796 13.1557 9.09244 13.0322 8.75404 12.9824C8.64609 12.967 8.52615 12.9559 8.40193 12.9559L8.40107 12.955Z" fill="#0080FF"/>
<path d="M14.4603 20C14.1818 20 13.9043 19.9425 13.6447 19.8259C12.7991 19.4691 12.2971 18.6424 12.3656 17.718C12.4333 16.8055 13.0424 16.0723 13.9188 15.8467C14.5545 15.6666 15.2484 15.8176 15.777 16.2506C16.3108 16.6871 16.5986 17.3449 16.5489 18.0104C16.5172 18.6947 16.1428 19.3216 15.5466 19.6887C15.2125 19.8945 14.8355 19.9991 14.4611 19.9991L14.4603 20ZM14.4611 16.9727C14.3874 16.9727 14.3129 16.983 14.2409 17.0036L14.2212 17.0087C13.6532 17.1519 13.5727 17.6553 13.5616 17.8063C13.5376 18.127 13.6704 18.5352 14.115 18.7205L14.133 18.7282C14.3832 18.8422 14.6693 18.8191 14.9177 18.6664C15.1773 18.5069 15.3392 18.2385 15.3512 17.9504L15.353 17.9263C15.3752 17.6493 15.2502 17.3706 15.018 17.1802C14.8509 17.0439 14.6564 16.9727 14.462 16.9727H14.4611Z" fill="#0080FF"/>
<path d="M20.0217 15.2884C19.6559 14.7936 19.2481 14.3786 18.83 14.0415C18.4822 14.3271 18.0984 14.5938 17.682 14.8382C16.8168 15.345 15.5728 15.6409 14.6775 14.9514C14.2723 14.6401 14.0316 14.1779 14.0145 13.6839C13.9982 13.1805 14.2192 12.6891 14.6219 12.3341C15.1702 11.8513 15.9275 11.6643 16.8108 11.7938C17.4447 11.8873 18.0975 12.136 18.7238 12.5073C19.8692 11.2655 20.0277 9.98432 19.9909 9.21336C19.9146 7.63027 18.962 6.19039 17.5647 5.54464C16.2822 4.95205 14.8472 5.12014 13.4764 6.01116C13.2169 6.1801 12.8699 6.1175 12.6805 5.87137C12.4681 5.59609 12.5306 5.19389 12.8228 5.00522C14.5345 3.89723 16.4167 3.69227 18.0676 4.45466C19.8658 5.28565 21.0909 7.1303 21.1894 9.15504C21.2605 10.6292 20.7337 12.0288 19.7005 13.2037C20.1725 13.6016 20.612 14.0681 20.9932 14.5852C21.1997 14.8648 21.1183 15.2619 20.8236 15.4454C20.5572 15.6118 20.2093 15.5423 20.0217 15.2893V15.2884ZM16.2839 12.955C15.9849 12.955 15.6593 13.0193 15.4143 13.2354C15.2798 13.3537 15.2087 13.4995 15.213 13.6445C15.2173 13.7808 15.2867 13.9069 15.4083 14.0004C15.805 14.3057 16.5315 14.1213 17.0763 13.8023C17.3256 13.6565 17.5535 13.5073 17.7634 13.3546C17.3608 13.1556 16.9753 13.0322 16.6368 12.9824C16.5289 12.967 16.409 12.9558 16.2847 12.9558L16.2839 12.955Z" fill="#0080FF"/>
<path d="M22.3509 20C22.0725 20 21.7949 19.9425 21.5353 19.8259C20.6897 19.4692 20.1877 18.6425 20.2562 17.718C20.3239 16.8055 20.933 16.0723 21.8094 15.8467C22.4451 15.6667 23.1391 15.8176 23.6677 16.2507C24.2014 16.6872 24.4892 17.3449 24.4396 18.0104C24.4079 18.6948 24.0335 19.3217 23.4372 19.6887C23.1031 19.8945 22.7261 19.9991 22.3517 19.9991L22.3509 20ZM22.3517 16.9727C22.2781 16.9727 22.2035 16.983 22.1316 17.0036L22.1119 17.0088C21.5439 17.152 21.4633 17.6554 21.4522 17.8063C21.4282 18.127 21.561 18.5353 22.0056 18.7205L22.0236 18.7282C22.2738 18.8423 22.5599 18.8191 22.8084 18.6665C23.068 18.507 23.2299 18.2385 23.2419 17.9504L23.2436 17.9264C23.2659 17.6494 23.1408 17.3707 22.9086 17.1803C22.7415 17.0439 22.5471 16.9727 22.3526 16.9727H22.3517Z" fill="#0080FF"/>
<path d="M27.9123 15.2884C27.5465 14.7936 27.1387 14.3786 26.7207 14.0415C26.3728 14.3271 25.989 14.5938 25.5727 14.8382C24.7074 15.345 23.4634 15.6409 22.5682 14.9514C22.1629 14.6401 21.9222 14.1779 21.9051 13.6839C21.8888 13.1805 22.1098 12.6891 22.5125 12.3341C23.0608 11.8513 23.8181 11.6643 24.7014 11.7938C25.3354 11.8873 25.9882 12.136 26.6144 12.5073C27.7599 11.2655 27.9183 9.98432 27.8815 9.21336C27.8053 7.63027 26.8526 6.19039 25.4553 5.54464C24.1728 4.95205 22.7378 5.12014 21.3671 6.01116C21.1075 6.1801 20.7605 6.1175 20.5712 5.87137C20.3587 5.59609 20.4212 5.19389 20.7134 5.00522C22.4251 3.89723 24.3073 3.69227 25.9582 4.45466C27.7564 5.28565 28.9815 7.1303 29.08 9.15504C29.1512 10.6292 28.6243 12.0288 27.5911 13.2037C28.0631 13.6016 28.5026 14.0681 28.8839 14.5852C29.0903 14.8648 29.0089 15.2619 28.7142 15.4454C28.4478 15.6118 28.1 15.5423 27.9123 15.2893V15.2884ZM24.1745 12.955C23.8755 12.955 23.55 13.0193 23.3049 13.2354C23.1704 13.3537 23.0993 13.4995 23.1036 13.6445C23.1079 13.7808 23.1773 13.9069 23.2989 14.0004C23.6956 14.3057 24.4221 14.1213 24.967 13.8023C25.2163 13.6565 25.4442 13.5073 25.6541 13.3546C25.2514 13.1556 24.8659 13.0322 24.5275 12.9824C24.4195 12.967 24.2996 12.9558 24.1754 12.9558L24.1745 12.955Z" fill="#0080FF"/>
<path d="M30.2337 20C29.9553 20 29.6777 19.9425 29.4181 19.8259C28.5725 19.4692 28.0705 18.6425 28.139 17.718C28.2067 16.8055 28.8158 16.0723 29.6923 15.8467C30.3279 15.6667 31.0219 15.8176 31.5505 16.2507C32.0842 16.6872 32.3721 17.3449 32.3224 18.0104C32.2907 18.6948 31.9163 19.3217 31.32 19.6887C30.9859 19.8945 30.6089 19.9991 30.2346 19.9991L30.2337 20ZM30.2346 16.9727C30.1609 16.9727 30.0863 16.983 30.0144 17.0036L29.9947 17.0088C29.4267 17.152 29.3461 17.6554 29.335 17.8063C29.311 18.127 29.4438 18.5353 29.8884 18.7205L29.9064 18.7282C30.1566 18.8423 30.4427 18.8191 30.6912 18.6665C30.9508 18.507 31.1127 18.2385 31.1247 17.9504L31.1264 17.9264C31.1487 17.6494 31.0236 17.3707 30.7914 17.1803C30.6244 17.0439 30.4299 16.9727 30.2354 16.9727H30.2346Z" fill="#0080FF"/>
</svg>
