<svg width="43" height="37" viewBox="0 0 43 37" fill="none" xmlns="http://www.w3.org/2000/svg">
<rect y="0.313721" width="42.4065" height="36.586" rx="18.293" fill="white"/>
<path d="M13.1375 24.8997C12.8183 24.8997 12.5489 24.7899 12.3292 24.5702C12.1097 24.3507 12 24.0814 12 23.7622C12 23.4431 12.1097 23.1736 12.3292 22.954C12.5489 22.7345 12.8183 22.6247 13.1375 22.6247H29.269C29.5882 22.6247 29.8576 22.7345 30.0773 22.954C30.2968 23.1736 30.4065 23.4431 30.4065 23.7622C30.4065 24.0814 30.2968 24.3507 30.0773 24.5702C29.8576 24.7899 29.5882 24.8997 29.269 24.8997H13.1375ZM13.1375 19.7442C12.8183 19.7442 12.5489 19.6345 12.3292 19.415C12.1097 19.1953 12 18.9259 12 18.6067C12 18.2876 12.1097 18.0181 12.3292 17.7985C12.5489 17.579 12.8183 17.4692 13.1375 17.4692H29.269C29.5882 17.4692 29.8576 17.579 30.0773 17.7985C30.2968 18.0181 30.4065 18.2876 30.4065 18.6067C30.4065 18.9259 30.2968 19.1953 30.0773 19.415C29.8576 19.6345 29.5882 19.7442 29.269 19.7442H13.1375ZM13.1375 14.5887C12.8183 14.5887 12.5489 14.479 12.3292 14.2595C12.1097 14.0398 12 13.7704 12 13.4512C12 13.1321 12.1097 12.8627 12.3292 12.6432C12.5489 12.4236 12.8183 12.3137 13.1375 12.3137H29.269C29.5882 12.3137 29.8576 12.4236 30.0773 12.6432C30.2968 12.8627 30.4065 13.1321 30.4065 13.4512C30.4065 13.7704 30.2968 14.0398 30.0773 14.2595C29.8576 14.479 29.5882 14.5887 29.269 14.5887H13.1375Z" fill="#333333"/>
</svg>
