<svg width="24" height="25" viewBox="0 0 24 25" fill="none" xmlns="http://www.w3.org/2000/svg">
<g opacity="0.8">
<mask id="mask0_3476_8720" style="mask-type:alpha" maskUnits="userSpaceOnUse" x="0" y="0" width="24" height="25">
<rect y="0.625" width="24" height="24" fill="#D9D9D9"/>
</mask>
<g mask="url(#mask0_3476_8720)">
<path d="M4.17424 21.6254C3.82424 21.7087 3.52007 21.6212 3.26174 21.3629C3.0034 21.1046 2.9159 20.8004 2.99924 20.4504L3.99924 15.6754L8.94924 20.6254L4.17424 21.6254ZM8.94924 20.6254L3.99924 15.6754L15.4492 4.22539C15.8326 3.84206 16.3076 3.65039 16.8742 3.65039C17.4409 3.65039 17.9159 3.84206 18.2992 4.22539L20.3992 6.32539C20.7826 6.70872 20.9742 7.18372 20.9742 7.75039C20.9742 8.31706 20.7826 8.79206 20.3992 9.17539L8.94924 20.6254ZM16.8742 5.62539L6.52424 15.9754L8.64924 18.1004L18.9992 7.75039L16.8742 5.62539Z" fill="white"/>
</g>
</g>
</svg>
