<svg width="45" height="45" viewBox="0 0 45 45" fill="none" xmlns="http://www.w3.org/2000/svg">
<rect x="0.40625" y="0.313721" width="44" height="44" rx="22" fill="white"/>
<path fill-rule="evenodd" clip-rule="evenodd" d="M22.4062 12.3137C23.7195 12.3137 25.0198 12.5724 26.2331 13.0749C27.4463 13.5775 28.5487 14.314 29.4773 15.2426C30.4059 16.1712 31.1425 17.2736 31.6451 18.4869C32.1476 19.7001 32.4063 21.0005 32.4063 22.3137C32.4063 27.8366 27.9291 32.3137 22.4062 32.3137C16.8834 32.3137 12.4062 27.8366 12.4062 22.3137C12.4062 16.7909 16.8834 12.3137 22.4062 12.3137ZM23.4063 23.3137H21.4062C18.9305 23.3137 16.8051 24.8131 15.8884 26.9535C17.3389 28.9874 19.7177 30.3137 22.4062 30.3137C25.0948 30.3137 27.4736 28.9874 28.9242 26.9533C28.0074 24.8131 25.882 23.3137 23.4063 23.3137ZM22.4062 15.3137C20.7494 15.3137 19.4062 16.6569 19.4062 18.3137C19.4062 19.9706 20.7494 21.3137 22.4062 21.3137C24.0631 21.3137 25.4062 19.9706 25.4062 18.3137C25.4062 16.6569 24.0631 15.3137 22.4062 15.3137Z" fill="#333333"/>
</svg>
