<svg width="24" height="25" viewBox="0 0 24 25" fill="none" xmlns="http://www.w3.org/2000/svg">
<mask id="mask0_454_600" style="mask-type:alpha" maskUnits="userSpaceOnUse" x="0" y="0" width="24" height="25">
<rect y="0.313721" width="24" height="24" fill="#D9D9D9"/>
</mask>
<g mask="url(#mask0_454_600)">
<path d="M12.675 12.3137L9.6 15.3887L11 16.8137L15.5 12.3137L11 7.81372L9.6 9.23872L12.675 12.3137ZM12 22.3137C10.6167 22.3137 9.31667 22.0512 8.1 21.5262C6.88333 21.0012 5.825 20.2887 4.925 19.3887C4.025 18.4887 3.3125 17.4304 2.7875 16.2137C2.2625 14.9971 2 13.6971 2 12.3137C2 10.9304 2.2625 9.63039 2.7875 8.41372C3.3125 7.19705 4.025 6.13872 4.925 5.23872C5.825 4.33872 6.88333 3.62622 8.1 3.10122C9.31667 2.57622 10.6167 2.31372 12 2.31372C13.3833 2.31372 14.6833 2.57622 15.9 3.10122C17.1167 3.62622 18.175 4.33872 19.075 5.23872C19.975 6.13872 20.6875 7.19705 21.2125 8.41372C21.7375 9.63039 22 10.9304 22 12.3137C22 13.6971 21.7375 14.9971 21.2125 16.2137C20.6875 17.4304 19.975 18.4887 19.075 19.3887C18.175 20.2887 17.1167 21.0012 15.9 21.5262C14.6833 22.0512 13.3833 22.3137 12 22.3137ZM12 20.3137C14.2333 20.3137 16.125 19.5387 17.675 17.9887C19.225 16.4387 20 14.5471 20 12.3137C20 10.0804 19.225 8.18872 17.675 6.63872C16.125 5.08872 14.2333 4.31372 12 4.31372C9.76667 4.31372 7.875 5.08872 6.325 6.63872C4.775 8.18872 4 10.0804 4 12.3137C4 14.5471 4.775 16.4387 6.325 17.9887C7.875 19.5387 9.76667 20.3137 12 20.3137Z" fill="#999999"/>
</g>
</svg>
