<svg width="24" height="24" viewBox="0 0 24 24" fill="none" xmlns="http://www.w3.org/2000/svg">
<rect width="24" height="24" rx="12" fill="white"/>
<path d="M17.0667 18L12.8667 13.8C12.5333 14.0667 12.15 14.2778 11.7167 14.4333C11.2833 14.5889 10.8222 14.6667 10.3333 14.6667C9.12222 14.6667 8.09722 14.2472 7.25833 13.4083C6.41944 12.5694 6 11.5444 6 10.3333C6 9.12222 6.41944 8.09722 7.25833 7.25833C8.09722 6.41944 9.12222 6 10.3333 6C11.5444 6 12.5694 6.41944 13.4083 7.25833C14.2472 8.09722 14.6667 9.12222 14.6667 10.3333C14.6667 10.8222 14.5889 11.2833 14.4333 11.7167C14.2778 12.15 14.0667 12.5333 13.8 12.8667L18 17.0667L17.0667 18ZM10.3333 13.3333C11.1667 13.3333 11.875 13.0417 12.4583 12.4583C13.0417 11.875 13.3333 11.1667 13.3333 10.3333C13.3333 9.5 13.0417 8.79167 12.4583 8.20833C11.875 7.625 11.1667 7.33333 10.3333 7.33333C9.5 7.33333 8.79167 7.625 8.20833 8.20833C7.625 8.79167 7.33333 9.5 7.33333 10.3333C7.33333 11.1667 7.625 11.875 8.20833 12.4583C8.79167 13.0417 9.5 13.3333 10.3333 13.3333Z" fill="#333333"/>
</svg>
