<svg width="25" height="25" viewBox="0 0 25 25" fill="none" xmlns="http://www.w3.org/2000/svg">
<path d="M12.3823 21.9008L10.9323 20.6008C9.24899 19.0841 7.85732 17.7758 6.75732 16.6758C5.65732 15.5758 4.78232 14.5883 4.13232 13.7133C3.48232 12.8383 3.02816 12.0341 2.76982 11.3008C2.51149 10.5674 2.38232 9.81745 2.38232 9.05078C2.38232 7.48411 2.90732 6.17578 3.95732 5.12578C5.00732 4.07578 6.31566 3.55078 7.88232 3.55078C8.74899 3.55078 9.57399 3.73411 10.3573 4.10078C11.1407 4.46745 11.8157 4.98411 12.3823 5.65078C12.949 4.98411 13.624 4.46745 14.4073 4.10078C15.1907 3.73411 16.0157 3.55078 16.8823 3.55078C18.449 3.55078 19.7573 4.07578 20.8073 5.12578C21.8573 6.17578 22.3823 7.48411 22.3823 9.05078C22.3823 9.81745 22.2532 10.5674 21.9948 11.3008C21.7365 12.0341 21.2823 12.8383 20.6323 13.7133C19.9823 14.5883 19.1073 15.5758 18.0073 16.6758C16.9073 17.7758 15.5157 19.0841 13.8323 20.6008L12.3823 21.9008Z" fill="white"/>
</svg>
