<svg width="24" height="25" viewBox="0 0 24 25" fill="none" xmlns="http://www.w3.org/2000/svg">
<g opacity="0.8">
<mask id="mask0_2368_14485" style="mask-type:alpha" maskUnits="userSpaceOnUse" x="0" y="0" width="24" height="25">
<rect y="0.75" width="24" height="24" fill="#D9D9D9"/>
</mask>
<g mask="url(#mask0_2368_14485)">
<path d="M4.17424 21.7504C3.82424 21.8337 3.52007 21.7462 3.26174 21.4879C3.0034 21.2296 2.9159 20.9254 2.99924 20.5754L3.99924 15.8004L8.94924 20.7504L4.17424 21.7504ZM8.94924 20.7504L3.99924 15.8004L15.4492 4.35039C15.8326 3.96706 16.3076 3.77539 16.8742 3.77539C17.4409 3.77539 17.9159 3.96706 18.2992 4.35039L20.3992 6.45039C20.7826 6.83372 20.9742 7.30872 20.9742 7.87539C20.9742 8.44206 20.7826 8.91706 20.3992 9.30039L8.94924 20.7504ZM16.8742 5.75039L6.52424 16.1004L8.64924 18.2254L18.9992 7.87539L16.8742 5.75039Z" fill="white"/>
</g>
</g>
</svg>
